<?xml version="1.0" encoding="UTF-8" standalone="no"?>
<!-- Created with Inkscape (http://www.inkscape.org/) -->
<svg id="svg2" xmlns:rdf="http://www.w3.org/1999/02/22-rdf-syntax-ns#" xmlns="http://www.w3.org/2000/svg" height="100mm" width="210mm" version="1.1" xmlns:cc="http://creativecommons.org/ns#" xmlns:dc="http://purl.org/dc/elements/1.1/" viewBox="0 0 744.09448819 1052.3622047">
 <metadata id="metadata7">
  <rdf:RDF>
   <cc:Work rdf:about="">
    <dc:format>image/svg+xml</dc:format>
    <dc:type rdf:resource="http://purl.org/dc/dcmitype/StillImage"/>
    <dc:title/>
   </cc:Work>
  </rdf:RDF>
 </metadata>
 <path
       style="fill:#008000;fill-opacity:1"
       d="m 593.91548,727.17136 c -11.275,-0.1212 -79.675,-0.69729 -152,-1.28021 -72.325,-0.58291 -188.875,-1.52836 -259,-2.10099 l -127.5,-1.04114 -10.75,-4.57784 -10.75,-4.57785 0,-6.35255 c 0,-4.58843 1.504286,-11.84281 5.416872,-26.12271 8.556667,-31.22959 26.858071,-101.2625 34.042945,-130.27016 5.331061,-21.52321 7.900052,-29.78431 13.679167,-43.98806 4.752053,-11.67946 8.484786,-19.26075 11.238214,-22.82515 4.003332,-5.18245 18.281062,-16.52695 28.897822,-22.96104 10.10604,-6.12457 44.43068,-17.63124 73.30962,-24.57561 33.03486,-7.94373 87.38685,-22.346 104.91536,-27.80063 24.07247,-7.49102 63.54812,-25.32555 77.81321,-35.15488 7.45132,-5.13432 10.39938,-5.69233 16.46891,-3.11728 5.19482,2.20395 24.67776,5.03701 44.35078,6.44914 17.28248,1.24055 29.90226,0.68737 57.3671,-2.51463 21.90719,-2.55405 31.12971,-2.74615 49.2077,-1.02495 9.46423,0.90108 22.21239,2.67163 28.32923,3.93454 l 11.12154,2.29621 2.46798,-3.72937 c 2.0842,-3.14944 3.18213,-3.82727 7.06034,-4.35883 9.43905,-1.29377 18.47502,-0.54152 22.46907,1.87054 1.20347,0.7268 13.42954,46.82434 44.75,168.72671 23.70178,92.24969 43.09414,169.03094 43.09414,170.625 0,6.38673 -1.16275,8.92613 -5.51985,12.05516 l -4.30711,3.09313 -42.83652,-0.2281 c -23.56008,-0.12546 -52.06152,-0.32726 -63.33652,-0.44845 z"
       id="body" />
</svg>
