<?xml version="1.0" encoding="UTF-8" standalone="no"?>
<!-- Created with Inkscape (http://www.inkscape.org/) -->

<svg id="svg2" xmlns:rdf="http://www.w3.org/1999/02/22-rdf-syntax-ns#" xmlns="http://www.w3.org/2000/svg" viewBox="0 350 755.891 400" preserveAspectRatio="xMidYMid meet" version="1.1" xmlns:cc="http://creativecommons.org/ns#" xmlns:dc="http://purl.org/dc/elements/1.1/">
 <metadata id="metadata7">
  <rdf:RDF>
   <cc:Work rdf:about="">
    <dc:title/>
   </cc:Work>
  </rdf:RDF>
 </metadata>
 <path
       style="fill:#008000;"
       d="m 593.91548,727.17136 c -11.275,-0.1212 -79.675,-0.69729 -152,-1.28021 -72.325,-0.58291 -188.875,-1.52836 -259,-2.10099 l -127.5,-1.04114 -10.75,-4.57784 -10.75,-4.57785 0,-6.35255 c 0,-4.58843 1.504286,-11.84281 5.416872,-26.12271 8.556667,-31.22959 26.858071,-101.2625 34.042945,-130.27016 5.331061,-21.52321 7.900052,-29.78431 13.679167,-43.98806 4.752053,-11.67946 8.484786,-19.26075 11.238214,-22.82515 4.003332,-5.18245 18.281062,-16.52695 28.897822,-22.96104 10.10604,-6.12457 44.43068,-17.63124 73.30962,-24.57561 33.03486,-7.94373 87.38685,-22.346 104.91536,-27.80063 24.07247,-7.49102 63.54812,-25.32555 77.81321,-35.15488 7.45132,-5.13432 10.39938,-5.69233 16.46891,-3.11728 5.19482,2.20395 24.67776,5.03701 44.35078,6.44914 17.28248,1.24055 29.90226,0.68737 57.3671,-2.51463 21.90719,-2.55405 31.12971,-2.74615 49.2077,-1.02495 9.46423,0.90108 22.21239,2.67163 28.32923,3.93454 l 11.12154,2.29621 2.46798,-3.72937 c 2.0842,-3.14944 3.18213,-3.82727 7.06034,-4.35883 9.43905,-1.29377 18.47502,-0.54152 22.46907,1.87054 1.20347,0.7268 13.42954,46.82434 44.75,168.72671 23.70178,92.24969 43.09414,169.03094 43.09414,170.625 0,6.38673 -1.16275,8.92613 -5.51985,12.05516 l -4.30711,3.09313 -42.83652,-0.2281 c -23.56008,-0.12546 -52.06152,-0.32726 -63.33652,-0.44845 z"
       id="body" />

<path
     style="stroke:#000000;"
     d="m 399.38058,384.1199 199.51247,9.95784 z"
     id="c1" />

<path
       style="stroke:#000000;"
       d="m 600.67124,400.47921 -203.78012,-9.6022 z"
       id="b1" />

<path
       style="stroke:#000000;"
       d="M 600.67124,407.23632 385.15509,398.34539 Z"
       id="a1"
       />

<path
       style="stroke:#000000;"
       d="M 602.09378,414.7047 374.48597,405.1025 Z"
       id="g#1"
        />
  
<path
       style="stroke:#000000;"
       d="m 603.87197,421.10617 -241.8333,-9.95784 z"
       id="g1"
        />

 <path
       style="stroke:#000000;"
       d="M 606.00579,427.86328 345.32372,417.19416 Z"
       id="f#1"
         />

    <path
       style="stroke:#000000;"
       d="M 604.93888,436.04293 327.18623,423.95127 Z"
       id="f1"
       />

    <path
       style="stroke:#000000;"
       d="M 610.98471,442.80004 314.38329,431.06401 Z"
       id="e1"
        />

    <path
      style="stroke:#000000;"
       d="M 609.9178,450.62406 292.33378,438.17676 Z"
       id="d1"
        />

    <path
      style="stroke:#000000;"
       d="M 614.09823,457.37596 275.61493,444.29934 Z"
       id="c#1"
        />

    <path
      style="stroke:#000000;"
       d="M 614.09823,464.92016 258.01179,451.34059 Z"
       id="c2"
        />

    <path
      style="stroke:#000000;"
       d="M 618.12181,472.46437 244.43222,457.8789 Z"
       id="b2"
        />

    <path
      style="stroke:#000000;"
       d="M 617.11591,480.00857 231.3556,465.92606 Z"
       id="a2"
        />

    <path
      style="stroke:#000000;"
       d="M 618.62475,489.06162 209.72888,473.47026 Z"
       id="g#2"
        />

    <path
      style="stroke:#000000;"
       d="M 621.13949,497.10877 185.08448,481.01446 Z"
       id="g2"
        />

    <path
      style="stroke:#000000;"
       d="M 622.64833,505.15592 169.49312,488.05572 Z"
       id="f#2"
        />

    <path
      style="stroke:#000000;"
       d="m 623.417,512.89662 -474.68825,-16.583 z"
       id="f2"
        />

    <path
      style="stroke:#000000;"
       d="M 624.37529,521.32501 142.83557,506.47577 Z"
       id="e2"
        />

    <path
      style="stroke:#000000;"
       d="M 626.49661,531.22451 140.71425,517.08237 Z"
       id="d2"
        />

    <path
      style="stroke:#000000;"
       d="M 629.32504,539.70979 140.71425,529.10319 Z"
       id="c#2"
        />

    <path
      style="stroke:#000000;"
       d="M 630.03214,549.60928 141.42136,537.58847 Z"
       id="c3"
        />

    <path
      style="stroke:#000000;"
       d="M 636.3961,563.04431 137.88582,548.19507 Z"
       id="c4"
        />

    <path
      style="stroke:#000000;"
       d="M 638.51742,569.40827 140.00714,555.26614 Z"
       id="g3"
        />

    <path
      style="stroke:#000000;"
       d="M 637.81032,575.06513 139.30004,560.92299 Z"
       id="c5"
        />

    <path
      style="stroke:#000000;"
       d="M 638.51742,580.72198 137.88582,567.28695 Z"
       id="e3"
        />

    <path
      style="stroke:#000000;"
       d="M 642.76006,589.91437 131.52186,575.77223 Z"
       id="g4"
        />

    <path
      style="stroke:#000000;"
       d="M 644.88138,596.98544 133.64318,582.13619 Z"
       id="g5"
        />

    <path
      style="stroke:#000000;"
       d="M 641.34585,603.3494 133.64318,587.08594 Z"
       id="b3"
        />

    <path
      style="stroke:#000000;"
       d="M 644.88138,609.71336 132.22897,593.4499 Z"
       id="d3"
        />

    <path
      style="stroke:#000000;"
       d="m 126.57211,604.05651 521.1377,13.43502 z"
       id="f3"
        />

    <path
      style="stroke:#000000;"
       d="M 130.10765,611.12757 648.41692,624.5626 Z"
       id="a3"
        />

    <path
      style="stroke:#000000;"
       d="m 129.40054,617.49153 523.25902,12.72793 z"
       id="c6"
        />

    <path
      style="stroke:#000000;"
       d="m 125.86501,624.5626 525.38034,12.02082 z"
       id="f4"
        />

    <path
      style="stroke:#000000;"
       d="m 121.62237,635.1692 531.03719,10.60661 z"
       id="d4"
        />

    <path
      style="stroke:#000000;"
       d="m 123.03658,641.53316 530.33009,12.02082 z"
       id="f#3"
        />

    <path
      style="stroke:#000000;"
       d="m 121.62237,647.89713 532.4514,12.72792 z"
       id="a4"
        />

    <path
      style="stroke:#000000;"
       d="m 121.62237,654.96819 538.10826,12.02082 z"
       id="d5"
        />

    <path
      style="stroke:#000000;"
       d="m 116.67262,666.98901 545.17933,12.72792 z"
       id="a5"
        />

    <path
      style="stroke:#000000;"
       d="M 116.67262,674.76718 656.9022,686.08089 Z"
       id="c#3"
        />

    <path
      style="stroke:#000000;"
       d="m 115.96551,681.83825 543.76512,10.6066 z"
       id="a6"
        />

    <path
      style="stroke:#000000;"
       d="m 115.25841,686.788 547.30064,12.72792 z"
       id="e4"
        />
 
</svg>
